<?xml version="1.0" encoding="UTF-8"?>
<svg id="Layer_1" data-name="Layer 1" xmlns="http://www.w3.org/2000/svg" viewBox="0 0 1920 695.34">
  <defs>
    <style>
      .cls-1 {
        fill: #fffbf6;
      }
    </style>
  </defs>
  <g>
    <path class="cls-1" d="M212.46,281.66c-4.53-31.06-21.35-42.07-59.54-42.07-31.71,0-49.83,7.77-49.83,26.53s17.48,26.53,51.78,36.24c36.24,10.35,70.54,17.47,95.13,27.18,33.66,13.59,52.43,35.59,52.43,77.01,0,66.01-48.54,105.49-139.15,105.49-97.72,0-152.08-45.95-153.38-110.67h86.72c0,29.77,25.24,47.24,66.01,47.24,29.77,0,56.3-9.06,56.3-33,0-22.65-23.94-29.77-51.13-36.24-53.71-12.94-83.49-22-106.14-36.24-29.77-18.77-40.12-43.36-40.12-71.83,0-53.72,36.89-94.49,133.97-94.49,91.9,0,133.32,36.24,137.84,104.84h-80.9Z"/>
    <path class="cls-1" d="M326.35,654.43V185.23h80.9l.65,38.83c20.06-32.36,49.83-47.24,88.66-47.24,80.25,0,137.84,63.42,137.84,170.86,0,96.43-48.54,164.38-130.73,164.38-39.48,0-70.54-16.18-94.49-49.83v192.21h-82.84ZM548.98,341.84c0-56.95-29.77-96.43-71.84-96.43s-71.19,37.54-71.19,91.25c0,69.25,23.94,103.55,70.54,103.55,49.19,0,72.49-33.01,72.49-98.37Z"/>
    <path class="cls-1" d="M864.15,503.64c-2.59-7.77-4.53-18.77-5.18-28.48-20.06,22-53.72,36.89-96.43,36.89-72.48,0-106.13-35.59-106.13-87.37,0-91.9,61.48-102.26,146.26-113.9,42.06-5.83,53.71-14.24,53.71-36.24,0-20.71-20.71-33.01-53.71-33.01-38.18,0-53.72,18.77-57.6,47.24h-78.31c1.29-66.01,37.54-111.96,139.79-111.96s135.91,45.3,135.91,125.55v201.27h-78.31ZM858.33,347.67c-8.41,8.41-23.29,12.94-54.36,18.77-47.89,9.06-63.42,22.65-63.42,49.83,0,23.94,14.24,35.59,40.77,35.59,43.36,0,75.72-31.71,76.37-69.25l.64-34.95Z"/>
    <path class="cls-1" d="M979.35,503.64V185.23h78.95v38.18c27.83-42.71,60.19-46.6,94.49-46.6h11v86.08c-7.77-1.3-15.53-1.94-23.3-1.94-51.77,0-77.01,25.89-77.01,77.01v165.68h-84.13Z"/>
    <path class="cls-1" d="M1382.53,503.64l-69.9-143.03-40.77,42.07v100.96h-84.78V68.74h84.78v237.51l104.84-121.02h102.9l-106.79,117.14,104.2,201.27h-94.49Z"/>
  </g>
  <g>
    <path class="cls-1" d="M1663.61,331.48c-6.86,5.8-14.01,11.26-21.43,16.32-17.57,12-32.3,10.09-52.15,4.97l-134.59-34.74c-5.36-1.38-5.48-8.95-.17-10.5l134.82-39.46c19.52-5.71,34.13-21.99,37.7-42.01l37.48-209.73c1.06-5.92,9.51-6.01,10.7-.12,11.09,54.88,22.07,109.78,33.12,164.67,2.82,14.03,5.81,28.02,8.96,41.98,1.26,5.58,2.88,10.92,4.41,16.39,1.57,5.64.29,10.04.29,15.63-4.79,20.97-22.93,40.55-37.24,55.8-6.89,7.35-14.21,14.3-21.9,20.81Z"/>
    <path class="cls-1" d="M1734.38,427.25l-38.17,251.63c-.93,6.11-9.71,6.2-10.75.1l-42.79-249.71c-2.74-12.32-6.11-24.6-8.9-37-1.58-7,1.49-14.36,7.78-17.79,16.85-9.2,31.49-22.28,47.18-33.14,18.13-12.54,38.37-27.8,52.75-45.6,4.55-5.63,12.37-7.41,18.99-4.49,17.7,7.81,36.2,14.68,54.76,19.47,30.26,7.81,60.53,15.62,90.79,23.43,5.36,1.38,5.48,8.94.17,10.5l-133.88,39.18c-20.01,5.86-34.81,22.79-37.93,43.4Z"/>
    <circle class="cls-1" cx="1825.54" cy="201.45" r="36.77"/>
  </g>
  <g>
    <path class="cls-1" d="M565.66,655.8v-25.95c0-10.41-3.92-15.24-18.26-15.24h-27.31v41.19h-15.69v-100.18h49.48c18.26,0,30.02,11.92,30.02,28.06,0,11.92-6.34,21.27-17.35,24.14,10.71,2.26,14.78,7.85,14.78,20.07v27.91h-15.69ZM550.27,601.49c13.43,0,18.56-7.24,18.56-16.3,0-9.66-5.58-16.14-17.5-16.14h-31.23v32.44h30.18Z"/>
    <path class="cls-1" d="M661.59,655.8v-100.18h71.81v13.58h-56.12v27.31h52.05v13.58h-52.05v31.99h58.54v13.73h-74.23Z"/>
    <path class="cls-1" d="M868.68,655.8l-19.01-73.32-19.31,73.32h-15.24l-27.76-100.18h17.2l18.71,73.17,17.8-73.17h16.9l18.86,73.17,18.56-73.17h16.45l-27.46,100.18h-15.69Z"/>
    <path class="cls-1" d="M1026.67,655.8l-7.7-22.48h-42.39l-8.3,22.48h-17.05l37.57-100.18h18.41l36.96,100.18h-17.5ZM997.71,573.28l-16.75,46.77h33.34l-16.59-46.77Z"/>
    <path class="cls-1" d="M1171.4,655.8v-25.95c0-10.41-3.92-15.24-18.26-15.24h-27.31v41.19h-15.69v-100.18h49.48c18.26,0,30.02,11.92,30.02,28.06,0,11.92-6.34,21.27-17.35,24.14,10.71,2.26,14.79,7.85,14.79,20.07v27.91h-15.69ZM1156.01,601.49c13.43,0,18.56-7.24,18.56-16.3,0-9.66-5.58-16.14-17.5-16.14h-31.23v32.44h30.18Z"/>
    <path class="cls-1" d="M1256.52,655.8v-100.18h37.87c26.4,0,45.26,18.26,45.26,49.64,0,29.57-16.9,50.54-42.24,50.54h-40.89ZM1294.24,642.68c19.31,0,28.97-13.73,28.97-37.87s-9.96-35.76-30.93-35.76h-20.07v73.63h22.03Z"/>
    <path class="cls-1" d="M1465.97,585.2c-.6-12.82-8.3-19.16-23.69-19.16-14.48,0-21.57,5.58-21.57,15.09,0,7.09,3.92,10.56,9.81,13.12,10.56,4.53,22.33,4.23,33.79,8.15,11.01,3.77,19.61,10.86,19.61,25.95,0,19.92-14.79,30.93-38.93,30.93s-41.04-10.86-41.49-33.49h15.54c.3,13.12,10.56,20.52,25.95,20.52,14.48,0,23.23-6.49,23.23-17.5,0-6.33-2.87-10.71-10.56-13.73-9.51-3.77-21.27-3.62-33.04-8-12.82-4.83-18.71-12.52-18.71-24.89,0-17.5,11.92-29.87,35.91-29.87s39.08,12.82,39.38,32.89h-15.24Z"/>
  </g>
</svg>